#!OML:ASF F:\VICON\USERDATA\INSTALL\rory3\rory3.ASF
:FULLY-SPECIFIED
:DEGREES
361
root 4.80066 17.6441 0.722235 -4.00448 -10.8642 -1.40115
lowerback 18.5991 1.52235 -0.731624
upperback 1.95873 2.18985 3.86596
thorax -8.49802 1.14398 4.05611
lowerneck -6.34924 -6.57687 -6.0809
upperneck 31.3008 -7.79521 -2.39562
head 11.3719 -4.53464 -0.736288
rclavicle 4.07509e-015 -2.38542e-014
rhumerus -58.4558 -46.7986 -31.3842
rradius 57.8009
rwrist -48.4309
rhand -5.84866 -3.15091
rfingers 7.12502
rthumb 19.9778 -32.144
lclavicle 4.07509e-015 -2.38542e-014
lhumerus -53.1923 18.0376 67.3743
lradius 31.3838
lwrist 3.43187
lhand -9.49164 51.7359
lfingers 7.12502
lthumb 16.4731 81.0566
rfemur 2.47168 1.79717 23.9169
rtibia 53.421
rfoot 15.9199 1.9443
rtoes 13.061
lfemur -25.3477 -8.25927 -18.5918
ltibia 34.4937
lfoot -1.58649 3.06242
ltoes -7.95343
362
root 4.80788 17.6563 0.953991 -4.23237 -11.5229 -1.1972
lowerback 18.5642 1.62364 -0.937081
upperback 2.11759 2.2675 3.78829
thorax -8.31562 1.18243 4.06847
lowerneck -6.83395 -6.34789 -5.74365
upperneck 31.2436 -7.44122 -2.5737
head 11.4113 -4.35649 -0.831689
rclavicle 1.19271e-014 -8.74653e-015
rhumerus -59.117 -46.6972 -30.8566
rradius 59.6996
rwrist -49.832
rhand -4.5495 -3.17859
rfingers 7.12502
rthumb 21.2262 -32.0364
lclavicle 1.19271e-014 -8.74653e-015
lhumerus -52.9747 18.0923 67.4187
lradius 31.4205
lwrist 3.42478
lhand -9.2387 51.7936
lfingers 7.12502
lthumb 16.7167 81.0938
rfemur 0.788403 2.24657 23.3808
rtibia 56.2581
rfoot 19.1538 1.86021
rtoes 16.5548
lfemur -24.4692 -7.55636 -19.1278
ltibia 35.0776
lfoot -2.70361 3.19602
ltoes -8.06644
363
root 4.81486 17.6669 1.17961 -4.60103 -11.9891 -0.59509
lowerback 18.6772 1.71085 -1.4654
upperback 2.14713 2.25606 3.5818
thorax -8.35539 1.19084 4.14816
lowerneck -6.64965 -6.14151 -5.83357
upperneck 30.992 -7.24012 -2.24546
head 11.2897 -4.23823 -0.658619
rclavicle -3.71727e-014 -5.56597e-015
rhumerus -60 -46.4063 -30.1545
rradius 61.6854
rwrist -51.0928
rhand -3.40436 -3.19466
rfingers 7.12502
rthumb 22.3258 -31.9248
lclavicle -3.71727e-014 -5.56597e-015
lhumerus -52.9401 17.8671 67.4842
lradius 31.5244
lwrist 3.68003
lhand -9.11579 51.4607
lfingers 7.12502
lthumb 16.835 80.7509
rfemur -0.738127 2.50782 22.4015
rtibia 59.0831
rfoot 21.9336 0.853358
rtoes 20.9077
lfemur -23.4192 -7.0021 -20.1101
ltibia 35.3497
lfoot -3.565 3.19848
ltoes -9.75581
364
root 4.81819 17.6819 1.40017 -4.98281 -12.1819 0.11963
lowerback 18.8356 1.71489 -2.10433
upperback 2.11042 2.11244 3.37309
thorax -8.48419 1.14223 4.32374
lowerneck -6.39641 -5.95178 -6.09228
upperneck 30.7498 -7.02975 -1.94446
head 11.1657 -4.1383 -0.465905
rclavicle 3.32964e-014 2.22639e-014
rhumerus -60.704 -45.8783 -29.6784
rradius 63.8268
rwrist -52.0881
rhand -2.10633 -3.21056
rfingers 7.12502
rthumb 23.5714 -31.786
lclavicle 3.32964e-014 2.22639e-014
lhumerus -53.1437 17.5114 67.6906
lradius 31.9983
lwrist 3.96599
lhand -8.91552 51.3957
lfingers 7.12502
lthumb 17.0278 80.6694
rfemur -2.34295 2.5019 21.348
rtibia 61.8745
rfoot 24.3265 -1.64993
rtoes 24.7107
lfemur -22.3197 -6.52748 -21.2274
ltibia 35.3389
lfoot -4.2063 2.99127
ltoes -11.101
365
root 4.81521 17.7013 1.61208 -5.29569 -12.3921 0.794762
lowerback 19.0092 1.72033 -2.78784
upperback 2.11648 1.95986 3.1975
thorax -8.57425 1.09079 4.56432
lowerneck -6.19395 -5.74047 -6.16446
upperneck 30.4622 -6.73575 -1.92497
head 11.0113 -4.0105 -0.397513
rclavicle 1.58034e-014 4.77083e-014
rhumerus -60.8337 -45.4188 -29.7254
rradius 66.0325
rwrist -52.5101
rhand -1.80823 -3.39774
rfingers 7.12502
rthumb 23.8573 -31.9361
lclavicle 1.58034e-014 4.77083e-014
lhumerus -53.1526 17.1043 68.0438
lradius 32.6222
lwrist 4.30933
lhand -8.42288 52.3126
lfingers 7.12502
lthumb 17.5019 81.5447
rfemur -4.1397 2.50669 20.4573
rtibia 64.6216
rfoot 25.1645 -3.9278
rtoes 24.6109
lfemur -21.1809 -5.96 -22.2393
ltibia 35.0875
lfoot -4.80308 2.87508
ltoes -10.8657
366
root 4.81094 17.7203 1.81655 -5.5937 -12.5842 1.55175
lowerback 19.1325 1.70275 -3.55768
upperback 2.1735 1.7525 2.98181
thorax -8.57296 1.01269 4.82596
lowerneck -6.40839 -5.37707 -5.92151
upperneck 30.3432 -6.20375 -2.06359
head 10.9777 -3.7577 -0.430126
rclavicle -3.62782e-014 4.77083e-015
rhumerus -60.6933 -45.1009 -29.9609
rradius 68.1645
rwrist -52.1128
rhand -2.41807 -3.4644
rfingers 7.12502
rthumb 23.2724 -32.078
lclavicle -3.62782e-014 4.77083e-015
lhumerus -53.0155 16.6971 68.4495
lradius 33.3931
lwrist 4.8907
lhand -8.23546 52.281
lfingers 7.12502
lthumb 17.6823 81.497
rfemur -5.94984 2.41405 19.4985
rtibia 67.2034
rfoot 23.9814 -5.65604
rtoes 22.3494
lfemur -20.0308 -5.44418 -23.265
ltibia 34.7847
lfoot -5.40345 2.81488
ltoes -8.3437
367
root 4.80922 17.7388 2.02433 -5.92891 -12.4192 2.60917
lowerback 19.1276 1.59693 -4.47066
upperback 2.20884 1.39136 2.64453
thorax -8.50224 0.862065 5.07779
lowerneck -6.27427 -5.07911 -5.95059
upperneck 29.9668 -5.8374 -1.87461
head 10.805 -3.57016 -0.301819
rclavicle 1.43125e-014 1.35174e-014
rhumerus -60.5821 -44.9869 -30.0105
rradius 70.0804
rwrist -51.0898
rhand -3.37112 -3.22925
rfingers 7.12502
rthumb 22.3578 -31.9556
lclavicle 1.43125e-014 1.35174e-014
lhumerus -53.0151 16.1346 68.8528
lradius 34.3543
lwrist 5.40455
lhand -8.54848 50.5314
lfingers 7.12502
lthumb 17.381 79.7742
rfemur -7.66666 1.86634 18.1028
rtibia 69.5657
rfoot 22.3702 -7.20048
rtoes 22.1427
lfemur -18.7779 -5.18736 -24.6815
ltibia 34.3641
lfoot -6.13301 2.7564
ltoes -7.97127
368
root 4.7973 17.7571 2.23527 -6.30636 -12.5657 2.8001
lowerback 19.3207 1.53827 -4.65401
upperback 2.21791 1.26412 2.61011
thorax -8.58512 0.808457 5.18022
lowerneck -6.05416 -4.75182 -5.90476
upperneck 29.7278 -5.36663 -1.97878
head 10.6547 -3.36111 -0.281463
rclavicle 5.03919e-014 -1.11319e-014
rhumerus -60.5021 -44.7905 -29.8547
rradius 71.9703
rwrist -49.9307
rhand -1.3231 -3.51728
rfingers 7.12502
rthumb 24.3225 -31.9941
lclavicle 5.03919e-014 -1.11319e-014
lhumerus -52.9795 15.8485 69.0366
lradius 34.7194
lwrist 5.56273
lhand -8.81255 49.1235
lfingers 7.12502
lthumb 17.1269 78.3886
rfemur -9.12985 1.61127 17.895
rtibia 71.616
rfoot 20.4329 -8.6176
rtoes 22.7681
lfemur -17.3602 -4.80504 -25.0359
ltibia 33.8273
lfoot -6.76203 2.57916
ltoes -7.97124
369
root 4.79115 17.7805 2.45012 -6.60042 -12.4865 3.1412
lowerback 19.1945 1.38523 -4.92852
upperback 2.33074 1.00416 2.54771
thorax -8.36214 0.682254 5.33785
lowerneck -6.11617 -4.3587 -5.40826
upperneck 29.6334 -4.69269 -2.67362
head 10.5802 -3.07689 -0.537418
rclavicle 3.8763e-015 -2.54444e-014
rhumerus -60.1192 -44.7901 -29.9341
rradius 73.9768
rwrist -48.7037
rhand -0.72156 -3.72851
rfingers 7.12502
rthumb 24.8991 -32.1268
lclavicle 3.8763e-015 -2.54444e-014
lhumerus -52.3812 16.1848 68.9559
lradius 34.2821
lwrist 5.18849
lhand -8.9914 48.6333
lfingers 7.12502
lthumb 16.9547 77.9133
rfemur -10.5551 1.09532 17.4338
rtibia 73.3683
rfoot 18.2242 -9.63367
rtoes 23.744
lfemur -16.1283 -4.81535 -25.5865
ltibia 33.3217
lfoot -7.19868 2.15833
ltoes -6.14379
370
root 4.78834 17.8094 2.65972 -6.81046 -11.8952 3.75734
lowerback 19.2955 1.11576 -5.39878
upperback 2.25856 0.52954 2.36649
thorax -8.43612 0.471268 5.53681
lowerneck -5.91299 -4.08173 -5.15503
upperneck 29.4608 -4.26666 -3.00745
head 10.4525 -2.8902 -0.643088
rclavicle 2.09718e-014 3.18055e-015
rhumerus -59.8191 -44.3837 -30.2483
rradius 76.2291
rwrist -47.682
rhand -0.539981 -3.85346
rfingers 7.12502
rthumb 25.0731 -32.2275
lclavicle 2.09718e-014 3.18055e-015
lhumerus -52.5737 15.2309 69.6904
lradius 35.8926
lwrist 6.06659
lhand -9.22793 49.6116
lfingers 7.12502
lthumb 16.727 78.911
rfemur -12.0146 0.0637895 16.563
rtibia 74.8364
rfoot 13.288 -9.33867
rtoes 15.3573
lfemur -14.9594 -5.26955 -26.5539
ltibia 32.781
lfoot -7.51736 1.81864
ltoes -5.38454
371
root 4.77709 17.8362 2.85391 -6.80233 -11.7614 3.08682
lowerback 19.5367 0.877227 -4.72367
upperback 2.19733 0.364041 2.55068
thorax -8.61029 0.379169 5.3979
lowerneck -6.39255 -3.8534 -4.8957
upperneck 29.9567 -3.89406 -3.20266
head 10.7172 -2.72483 -0.740174
rclavicle 2.98177e-016 2.38542e-015
rhumerus -59.5906 -44.1743 -30.4855
rradius 78.476
rwrist -46.3654
rhand -1.09813 -3.75482
rfingers 7.12502
rthumb 24.5381 -32.2025
lclavicle 2.98177e-016 2.38542e-015
lhumerus -52.4245 14.774 70.0203
lradius 36.6143
lwrist 6.33387
lhand -9.48834 49.8152
lfingers 7.12502
lthumb 16.4763 79.1356
rfemur -13.5534 -0.40325 17.474
rtibia 75.9839
rfoot 11.6228 -10.0794
rtoes 15.5186
lfemur -13.8852 -5.4592 -26.0145
ltibia 32.3169
lfoot -7.77414 1.78973
ltoes -7.1184
372
root 4.77551 17.8557 3.07163 -7.02527 -11.4402 3.43257
lowerback 19.4611 0.636002 -4.84548
upperback 2.11233 0.0117831 2.42311
thorax -8.6167 0.214581 5.42084
lowerneck -5.64918 -3.59882 -4.90436
upperneck 29.64 -3.59811 -3.17132
head 10.4494 -2.58121 -0.670098
rclavicle -1.58034e-014 0
rhumerus -59.3815 -43.9172 -30.6442
rradius 80.7483
rwrist -44.7651
rhand -2.00408 -3.63837
rfingers 7.12502
rthumb 23.6695 -32.2012
lclavicle -1.58034e-014 0
lhumerus -52.4039 14.4707 70.145
lradius 37.1448
lwrist 6.55705
lhand -10.1103 49.4131
lfingers 7.12502
lthumb 15.8774 78.7822
rfemur -14.7215 -1.07113 16.9794
rtibia 76.8968
rfoot 9.69316 -10.5179
rtoes 15.3051
lfemur -12.5934 -5.61414 -26.7042
ltibia 31.8487
lfoot -8.2033 1.82312
ltoes -7.93662
373
root 4.7695 17.8728 3.27212 -7.09336 -11.0357 3.44339
lowerback 19.4255 0.334969 -4.75698
upperback 2.09976 -0.363242 2.43455
thorax -8.56256 0.0302656 5.48042
lowerneck -6.19211 -3.20798 -4.36977
upperneck 29.727 -2.98214 -3.57443
head 10.5613 -2.29076 -0.853205
rclavicle -3.86636e-014 3.97569e-015
rhumerus -58.8253 -43.7675 -31.0164
rradius 82.9548
rwrist -42.9405
rhand -2.07402 -3.3114
rfingers 7.12502
rthumb 23.6024 -31.8828
lclavicle -3.86636e-014 3.97569e-015
lhumerus -52.2383 14.2482 70.3754
lradius 38.0696
lwrist 6.78566
lhand -10.2738 50.0559
lfingers 7.12502
lthumb 15.72 79.4374
rfemur -16.0522 -1.71291 16.9875
rtibia 77.5527
rfoot 8.19631 -11.1684
rtoes 15.0521
lfemur -11.6302 -5.49539 -26.9444
ltibia 31.587
lfoot -8.65076 1.50056
ltoes -8.35493
